<svg xmlns="http://www.w3.org/2000/svg" width="1100" height="700" viewBox="0 0 1100 700">
<rect width="100%" height="100%" fill="white"/>
<text x="550.0" y="36" text-anchor="middle" font-family="sans-serif" font-size="22" font-weight="600">NSA naive selected-block kernel, case40: full-card inferred compute roof</text>
<line x1="375.43" y1="75" x2="375.43" y2="610" stroke="#d1d5db" stroke-width="1"/>
<text x="375.43" y="635" text-anchor="middle" font-family="sans-serif" font-size="12">10^2</text>
<line x1="713.53" y1="75" x2="713.53" y2="610" stroke="#d1d5db" stroke-width="1"/>
<text x="713.53" y="635" text-anchor="middle" font-family="sans-serif" font-size="12">10^3</text>
<line x1="1051.62" y1="75" x2="1051.62" y2="610" stroke="#d1d5db" stroke-width="1"/>
<text x="1051.62" y="635" text-anchor="middle" font-family="sans-serif" font-size="12">10^4</text>
<line x1="105" y1="408.77" x2="1065" y2="408.77" stroke="#d1d5db" stroke-width="1"/>
<text x="91" y="412.77" text-anchor="end" font-family="sans-serif" font-size="12">10^2</text>
<line x1="105" y1="198.01" x2="1065" y2="198.01" stroke="#d1d5db" stroke-width="1"/>
<text x="91" y="202.01" text-anchor="end" font-family="sans-serif" font-size="12">10^3</text>
<rect x="105" y="75" width="960" height="535" fill="none" stroke="#111827" stroke-width="1.5"/>
<text x="585.0" y="676" text-anchor="middle" font-family="sans-serif" font-size="15">Arithmetic intensity (FLOP/byte)</text>
<text x="24" y="342.5" text-anchor="middle" transform="rotate(-90 24 342.5)" font-family="sans-serif" font-size="15">Performance (TFLOP/s)</text>
<polyline points="105.00,521.38 108.76,519.03 112.53,516.69 116.29,514.34 120.06,511.99 123.82,509.65 127.59,507.30 131.35,504.95 135.12,502.61 138.88,500.26 142.65,497.91 146.41,495.56 150.18,493.22 153.94,490.87 157.71,488.52 161.47,486.18 165.24,483.83 169.00,481.48 172.76,479.14 176.53,476.79 180.29,474.44 184.06,472.10 187.82,469.75 191.59,467.40 195.35,465.06 199.12,462.71 202.88,460.36 206.65,458.02 210.41,455.67 214.18,453.32 217.94,450.97 221.71,448.63 225.47,446.28 229.24,443.93 233.00,441.59 236.76,439.24 240.53,436.89 244.29,434.55 248.06,432.20 251.82,429.85 255.59,427.51 259.35,425.16 263.12,422.81 266.88,420.47 270.65,418.12 274.41,415.77 278.18,413.43 281.94,411.08 285.71,408.73 289.47,406.38 293.24,404.04 297.00,401.69 300.76,399.34 304.53,397.00 308.29,394.65 312.06,392.30 315.82,389.96 319.59,387.61 323.35,385.26 327.12,382.92 330.88,380.57 334.65,378.22 338.41,375.88 342.18,373.53 345.94,371.18 349.71,368.84 353.47,366.49 357.24,364.14 361.00,361.79 364.76,359.45 368.53,357.10 372.29,354.75 376.06,352.41 379.82,350.06 383.59,347.71 387.35,345.37 391.12,343.02 394.88,340.67 398.65,338.33 402.41,335.98 406.18,333.63 409.94,331.29 413.71,328.94 417.47,326.59 421.24,324.25 425.00,321.90 428.76,319.55 432.53,317.20 436.29,314.86 440.06,312.51 443.82,310.16 447.59,307.82 451.35,305.47 455.12,303.12 458.88,300.78 462.65,298.43 466.41,296.08 470.18,293.74 473.94,291.39 477.71,289.04 481.47,286.70 485.24,284.35 489.00,282.00 492.76,279.66 496.53,277.31 500.29,274.96 504.06,272.61 507.82,270.27 511.59,267.92 515.35,265.57 519.12,263.23 522.88,260.88 526.65,258.53 530.41,256.19 534.18,253.84 537.94,251.49 541.71,249.15 545.47,246.80 549.24,244.45 553.00,242.11 556.76,239.76 560.53,237.41 564.29,235.06 568.06,232.72 571.82,230.37 575.59,228.02 579.35,225.68 583.12,223.33 586.88,220.98 590.65,218.64 594.41,216.29 598.18,213.94 601.94,211.60 605.71,209.25 609.47,206.90 613.24,204.56 617.00,202.21 620.76,199.86 624.53,197.52 628.29,195.17 632.06,192.82 635.82,190.47 639.59,188.13 643.35,185.78 647.12,183.43 650.88,181.09 654.65,178.74 658.41,176.39 662.18,174.05 665.94,171.70 669.71,169.35 673.47,167.01 677.24,164.66 681.00,162.31 684.76,159.97 688.53,157.62 692.29,155.27 696.06,152.93 699.82,150.58 703.59,148.23 707.35,145.88 711.12,143.54 714.88,141.19 718.65,138.84 722.41,138.45 726.18,138.45 729.94,138.45 733.71,138.45 737.47,138.45 741.24,138.45 745.00,138.45 748.76,138.45 752.53,138.45 756.29,138.45 760.06,138.45 763.82,138.45 767.59,138.45 771.35,138.45 775.12,138.45 778.88,138.45 782.65,138.45 786.41,138.45 790.18,138.45 793.94,138.45 797.71,138.45 801.47,138.45 805.24,138.45 809.00,138.45 812.76,138.45 816.53,138.45 820.29,138.45 824.06,138.45 827.82,138.45 831.59,138.45 835.35,138.45 839.12,138.45 842.88,138.45 846.65,138.45 850.41,138.45 854.18,138.45 857.94,138.45 861.71,138.45 865.47,138.45 869.24,138.45 873.00,138.45 876.76,138.45 880.53,138.45 884.29,138.45 888.06,138.45 891.82,138.45 895.59,138.45 899.35,138.45 903.12,138.45 906.88,138.45 910.65,138.45 914.41,138.45 918.18,138.45 921.94,138.45 925.71,138.45 929.47,138.45 933.24,138.45 937.00,138.45 940.76,138.45 944.53,138.45 948.29,138.45 952.06,138.45 955.82,138.45 959.59,138.45 963.35,138.45 967.12,138.45 970.88,138.45 974.65,138.45 978.41,138.45 982.18,138.45 985.94,138.45 989.71,138.45 993.47,138.45 997.24,138.45 1001.00,138.45 1004.76,138.45 1008.53,138.45 1012.29,138.45 1016.06,138.45 1019.82,138.45 1023.59,138.45 1027.35,138.45 1031.12,138.45 1034.88,138.45 1038.65,138.45 1042.41,138.45 1046.18,138.45 1049.94,138.45 1053.71,138.45 1057.47,138.45 1061.24,138.45 1065.00,138.45" fill="none" stroke="#2563eb" stroke-width="3"/>
<line x1="123" y1="99" x2="151" y2="99" stroke="#2563eb" stroke-width="3"/>
<text x="159" y="103" font-family="sans-serif" font-size="12">physical_theoretical: 1843.2 GB/s (ridge 1040.0)</text>
<polyline points="105.00,546.55 108.76,544.21 112.53,541.86 116.29,539.51 120.06,537.17 123.82,534.82 127.59,532.47 131.35,530.13 135.12,527.78 138.88,525.43 142.65,523.09 146.41,520.74 150.18,518.39 153.94,516.05 157.71,513.70 161.47,511.35 165.24,509.00 169.00,506.66 172.76,504.31 176.53,501.96 180.29,499.62 184.06,497.27 187.82,494.92 191.59,492.58 195.35,490.23 199.12,487.88 202.88,485.54 206.65,483.19 210.41,480.84 214.18,478.50 217.94,476.15 221.71,473.80 225.47,471.46 229.24,469.11 233.00,466.76 236.76,464.41 240.53,462.07 244.29,459.72 248.06,457.37 251.82,455.03 255.59,452.68 259.35,450.33 263.12,447.99 266.88,445.64 270.65,443.29 274.41,440.95 278.18,438.60 281.94,436.25 285.71,433.91 289.47,431.56 293.24,429.21 297.00,426.87 300.76,424.52 304.53,422.17 308.29,419.82 312.06,417.48 315.82,415.13 319.59,412.78 323.35,410.44 327.12,408.09 330.88,405.74 334.65,403.40 338.41,401.05 342.18,398.70 345.94,396.36 349.71,394.01 353.47,391.66 357.24,389.32 361.00,386.97 364.76,384.62 368.53,382.28 372.29,379.93 376.06,377.58 379.82,375.23 383.59,372.89 387.35,370.54 391.12,368.19 394.88,365.85 398.65,363.50 402.41,361.15 406.18,358.81 409.94,356.46 413.71,354.11 417.47,351.77 421.24,349.42 425.00,347.07 428.76,344.73 432.53,342.38 436.29,340.03 440.06,337.69 443.82,335.34 447.59,332.99 451.35,330.64 455.12,328.30 458.88,325.95 462.65,323.60 466.41,321.26 470.18,318.91 473.94,316.56 477.71,314.22 481.47,311.87 485.24,309.52 489.00,307.18 492.76,304.83 496.53,302.48 500.29,300.14 504.06,297.79 507.82,295.44 511.59,293.10 515.35,290.75 519.12,288.40 522.88,286.05 526.65,283.71 530.41,281.36 534.18,279.01 537.94,276.67 541.71,274.32 545.47,271.97 549.24,269.63 553.00,267.28 556.76,264.93 560.53,262.59 564.29,260.24 568.06,257.89 571.82,255.55 575.59,253.20 579.35,250.85 583.12,248.51 586.88,246.16 590.65,243.81 594.41,241.46 598.18,239.12 601.94,236.77 605.71,234.42 609.47,232.08 613.24,229.73 617.00,227.38 620.76,225.04 624.53,222.69 628.29,220.34 632.06,218.00 635.82,215.65 639.59,213.30 643.35,210.96 647.12,208.61 650.88,206.26 654.65,203.91 658.41,201.57 662.18,199.22 665.94,196.87 669.71,194.53 673.47,192.18 677.24,189.83 681.00,187.49 684.76,185.14 688.53,182.79 692.29,180.45 696.06,178.10 699.82,175.75 703.59,173.41 707.35,171.06 711.12,168.71 714.88,166.37 718.65,164.02 722.41,161.67 726.18,159.32 729.94,156.98 733.71,154.63 737.47,152.28 741.24,149.94 745.00,147.59 748.76,145.24 752.53,142.90 756.29,140.55 760.06,138.45 763.82,138.45 767.59,138.45 771.35,138.45 775.12,138.45 778.88,138.45 782.65,138.45 786.41,138.45 790.18,138.45 793.94,138.45 797.71,138.45 801.47,138.45 805.24,138.45 809.00,138.45 812.76,138.45 816.53,138.45 820.29,138.45 824.06,138.45 827.82,138.45 831.59,138.45 835.35,138.45 839.12,138.45 842.88,138.45 846.65,138.45 850.41,138.45 854.18,138.45 857.94,138.45 861.71,138.45 865.47,138.45 869.24,138.45 873.00,138.45 876.76,138.45 880.53,138.45 884.29,138.45 888.06,138.45 891.82,138.45 895.59,138.45 899.35,138.45 903.12,138.45 906.88,138.45 910.65,138.45 914.41,138.45 918.18,138.45 921.94,138.45 925.71,138.45 929.47,138.45 933.24,138.45 937.00,138.45 940.76,138.45 944.53,138.45 948.29,138.45 952.06,138.45 955.82,138.45 959.59,138.45 963.35,138.45 967.12,138.45 970.88,138.45 974.65,138.45 978.41,138.45 982.18,138.45 985.94,138.45 989.71,138.45 993.47,138.45 997.24,138.45 1001.00,138.45 1004.76,138.45 1008.53,138.45 1012.29,138.45 1016.06,138.45 1019.82,138.45 1023.59,138.45 1027.35,138.45 1031.12,138.45 1034.88,138.45 1038.65,138.45 1042.41,138.45 1046.18,138.45 1049.94,138.45 1053.71,138.45 1057.47,138.45 1061.24,138.45 1065.00,138.45" fill="none" stroke="#dc2626" stroke-width="3"/>
<line x1="123" y1="121" x2="151" y2="121" stroke="#dc2626" stroke-width="3"/>
<text x="159" y="125" font-family="sans-serif" font-size="12">sc16_prior_conservative_measured: 1400 GB/s (ridge 1369.2)</text>
<line x1="105" y1="138.45" x2="1065" y2="138.45" stroke="#111827" stroke-width="2" stroke-dasharray="8 6"/>
<circle cx="410.33" cy="450.91" r="6" fill="#2563eb" stroke="white" stroke-width="1.5"/>
<text x="418.33" y="442.91" font-family="sans-serif" font-size="12">case40 mcProfiler aggregate</text>
</svg>
